#N canvas 411 447 540 407 12;
#X obj 154 106 inlet velocity;
#X obj 99 201 spigot;
#X obj 99 228 timer;
#X obj 154 128 > 0;
#X obj 198 181 == 0;
#X obj 159 201 spigot;
#X obj 99 272 sel 1;
#X obj 42 292 spigot;
#X obj 42 81 inlet;
#X obj 99 330 outlet;
#X obj 42 330 outlet;
#X obj 99 250 > \$1;
#X connect 0 0 3 0;
#X connect 1 0 2 0;
#X connect 2 0 11 0;
#X connect 3 0 4 0;
#X connect 3 0 1 1;
#X connect 3 0 7 1;
#X connect 4 0 5 1;
#X connect 5 0 2 1;
#X connect 6 0 9 0;
#X connect 7 0 10 0;
#X connect 8 0 1 0;
#X connect 8 0 5 0;
#X connect 8 0 7 0;
#X connect 11 0 6 0;
