#N canvas 619 277 466 433 10;
#X obj 69 32 inlet;
#X obj 160 116 tabplay~ \$0-sample;
#X obj 275 36 load \$1 \$0-sample;
#X obj 69 54 select 1;
#X text 179 359 Main Audio Out;
#X obj 111 358 outlet~;
#X obj 111 327 *~;
#X obj 234 181 inlet;
#X obj 234 248 pack 0 50;
#X obj 234 223 / 127;
#X text 233 164 pad velocity;
#X obj 158 178 loadbang;
#X msg 158 202 1;
#X obj 158 288 line~;
#X obj 113 190 *~;
#X obj 69 156 line~;
#X obj 106 86 delay 5;
#X msg 107 118 1 5;
#X msg 69 118 0 5;
#X msg 26 191 1;
#X obj 26 224 switch~;
#X msg 57 191 0;
#X connect 0 0 3 0;
#X connect 1 0 14 1;
#X connect 1 1 21 0;
#X connect 3 0 18 0;
#X connect 3 0 16 0;
#X connect 3 0 19 0;
#X connect 6 0 5 0;
#X connect 7 0 9 0;
#X connect 8 0 13 0;
#X connect 9 0 8 0;
#X connect 11 0 12 0;
#X connect 12 0 13 0;
#X connect 13 0 6 1;
#X connect 14 0 6 0;
#X connect 15 0 14 0;
#X connect 16 0 17 0;
#X connect 16 0 1 0;
#X connect 17 0 15 0;
#X connect 18 0 15 0;
#X connect 19 0 20 0;
#X connect 21 0 20 0;
